<?xml version="1.0" encoding="UTF-8"?> <svg xmlns="http://www.w3.org/2000/svg" width="270" height="253" viewBox="0 0 270 253" fill="none"> <path d="M61.4759 10.8909C71.7735 4.92515 76.9223 1.94227 82.3962 0.774759C87.2396 -0.258258 92.2452 -0.258254 97.0885 0.774772C102.562 1.94229 107.711 4.92517 118.009 10.8909L151.202 30.1211C161.501 36.0878 166.651 39.0711 170.396 43.2449C173.709 46.9379 176.212 51.2885 177.742 56.0147C179.471 61.3562 179.47 67.3228 179.469 79.2561L179.462 123.883C179.461 135.813 179.46 141.778 177.73 147.117C176.2 151.842 173.697 156.191 170.384 159.883C166.64 164.055 161.492 167.037 151.196 173.002L117.993 192.238C107.696 198.204 102.547 201.186 97.0728 202.354C92.2295 203.387 87.2238 203.387 82.3805 202.354C76.9066 201.186 71.7578 198.204 61.4602 192.238L28.2665 173.008C17.9673 167.041 12.8177 164.058 9.0728 159.884C5.75928 156.191 3.25642 151.84 1.72657 147.114C-0.00245265 141.772 -0.00159995 135.806 0.000105488 123.872L0.00648329 79.2454C0.00818819 67.3158 0.00904068 61.351 1.73866 56.0114C3.26902 51.2868 5.7718 46.9377 9.08472 43.246C12.829 39.0737 17.9769 36.0913 28.2729 30.1265L61.4759 10.8909Z" fill="url(#paint0_linear_1709_2)"></path> <path d="M207.818 241.289C197.487 247.255 192.322 250.237 186.831 251.405C181.972 252.438 176.95 252.438 172.091 251.405C166.599 250.237 161.434 247.255 151.103 241.289L117.803 222.059C107.471 216.092 102.305 213.109 98.5478 208.935C95.2237 205.242 92.7128 200.891 91.178 196.165C89.4434 190.824 89.4443 184.857 89.4459 172.924L89.4522 128.297C89.4539 116.367 89.4547 110.402 91.1899 105.062C92.7252 100.338 95.236 95.9888 98.5596 92.2971C102.316 88.1247 107.48 85.1423 117.809 79.1775L151.119 59.9419C161.45 53.9762 166.615 50.9933 172.107 49.8258C176.966 48.7928 181.987 48.7928 186.846 49.8258C192.338 50.9933 197.503 53.9762 207.834 59.9419L241.134 79.1721C251.467 85.1388 256.633 88.1221 260.39 92.296C263.714 95.989 266.225 100.34 267.76 105.066C269.494 110.407 269.493 116.374 269.492 128.307L269.485 172.934C269.483 184.864 269.483 190.829 267.747 196.168C266.212 200.893 263.701 205.242 260.378 208.934C256.621 213.106 251.457 216.088 241.128 222.053L207.818 241.289Z" fill="url(#paint1_linear_1709_2)"></path> <defs> <linearGradient id="paint0_linear_1709_2" x1="89.7266" y1="-5.48478" x2="89.7344" y2="186.641" gradientUnits="userSpaceOnUse"> <stop stop-color="#6E3CFF"></stop> <stop offset="1" stop-color="#6E3CFF" stop-opacity="0"></stop> </linearGradient> <linearGradient id="paint1_linear_1709_2" x1="179.469" y1="248.322" x2="179" y2="77.5" gradientUnits="userSpaceOnUse"> <stop stop-color="#A54BFF"></stop> <stop offset="1" stop-color="#C642FF" stop-opacity="0"></stop> <stop offset="1" stop-color="#A54BFF" stop-opacity="0"></stop> </linearGradient> </defs> </svg> 