<?xml version="1.0" encoding="UTF-8"?> <svg xmlns="http://www.w3.org/2000/svg" width="270" height="254" viewBox="0 0 270 254" fill="none"> <path d="M61.4759 10.8909C71.7735 4.92515 76.9223 1.94227 82.3962 0.774759C87.2396 -0.258258 92.2452 -0.258254 97.0885 0.774772C102.562 1.94229 107.711 4.92517 118.009 10.8909L151.202 30.1211C161.501 36.0878 166.651 39.0711 170.396 43.2449C173.709 46.9379 176.212 51.2885 177.742 56.0147C179.471 61.3562 179.47 67.3228 179.469 79.2561L179.462 123.883C179.461 135.813 179.46 141.778 177.73 147.117C176.2 151.842 173.697 156.191 170.384 159.883C166.64 164.055 161.492 167.037 151.196 173.002L117.993 192.238C107.696 198.204 102.547 201.186 97.0728 202.354C92.2295 203.387 87.2238 203.387 82.3805 202.354C76.9066 201.186 71.7578 198.204 61.4602 192.238L28.2665 173.008C17.9673 167.041 12.8177 164.058 9.0728 159.884C5.75928 156.191 3.25642 151.84 1.72657 147.114C-0.00245265 141.772 -0.00159995 135.806 0.000105488 123.872L0.00648329 79.2454C0.00818819 67.3158 0.00904068 61.351 1.73866 56.0114C3.26902 51.2868 5.7718 46.9377 9.08472 43.246C12.829 39.0737 17.9769 36.0913 28.2729 30.1265L61.4759 10.8909Z" fill="url(#paint0_linear_332_6210)"></path> <path d="M207.818 243.02C197.487 248.986 192.322 251.969 186.831 253.136C181.972 254.169 176.95 254.169 172.091 253.136C166.599 251.969 161.434 248.986 151.103 243.02L117.803 223.79C107.471 217.823 102.305 214.84 98.5478 210.666C95.2237 206.973 92.7128 202.622 91.178 197.896C89.4434 192.555 89.4443 186.588 89.4459 174.655L89.4522 130.028C89.4539 118.098 89.4547 112.133 91.1899 106.794C92.7252 102.069 95.236 97.72 98.5596 94.0283C102.316 89.8559 107.48 86.8735 117.809 80.9087L151.119 61.6731C161.45 55.7074 166.615 52.7245 172.107 51.557C176.966 50.524 181.987 50.524 186.846 51.557C192.338 52.7245 197.503 55.7074 207.834 61.6731L241.134 80.9033C251.467 86.87 256.633 89.8533 260.39 94.0272C263.714 97.7202 266.225 102.071 267.76 106.797C269.494 112.139 269.493 118.105 269.492 130.039L269.485 174.666C269.483 186.595 269.483 192.56 267.747 197.9C266.212 202.624 263.701 206.973 260.378 210.665C256.621 214.837 251.457 217.82 241.128 223.784L207.818 243.02Z" fill="url(#paint1_linear_332_6210)"></path> <defs> <linearGradient id="paint0_linear_332_6210" x1="89.7266" y1="-5.48478" x2="89.7344" y2="186.641" gradientUnits="userSpaceOnUse"> <stop stop-color="#6E3CFF"></stop> <stop offset="1" stop-color="#6E3CFF" stop-opacity="0"></stop> </linearGradient> <linearGradient id="paint1_linear_332_6210" x1="176.728" y1="259.493" x2="174.54" y2="69.6212" gradientUnits="userSpaceOnUse"> <stop stop-color="#4BA5FF"></stop> <stop offset="1" stop-color="#4BA5FF" stop-opacity="0"></stop> </linearGradient> </defs> </svg> 